# xmcd
#
# Track frame offsets:
#	150
#	17705
#	34735
#	57603
#	87439
#	105552
#	123495
#	144057
#	163787
#	187864
#	203899
#	223236
#	255804
#
# Disc length: 3597 seconds
#
# Revision: 0
# Processed by: cddbd v1.5.2PL0 Copyright (c) Steve Scherf et al.
# Submitted via: audiograbber 1.83.01
#
DISCID=b00e0b0d
DTITLE=John Hartford - A Tribute To John Hartford
DYEAR=2008
DGENRE=Country
TTITLE0=Gentle On My Mind
TTITLE1=Billy The Kid
TTITLE2=Savannah Rag
TTITLE3=Dark As A Dungeon
TTITLE4=Who Cut Your Heart Out
TTITLE5=In Tall Buildings
TTITLE6=More Love
TTITLE7=On The Road
TTITLE8=In The Heart Of The Cross Eyed Child
TTITLE9=Me And My Fiddle
TTITLE10=The Boys From North Carolina
TTITLE11=Watching The River Go By
TTITLE12=Give Me The Flowers While I'm Living
EXTD=
EXTT0=
EXTT1=
EXTT2=
EXTT3=
EXTT4=
EXTT5=
EXTT6=
EXTT7=
EXTT8=
EXTT9=
EXTT10=
EXTT11=
EXTT12=
PLAYORDER=
